/* XPM */
static char *result[] = {
/* columns rows colors chars-per-pixel */
"32 32 41 1 ",
"  c #446300",
". c #4F422F",
"X c #016571",
"o c #767678",
"O c #8C3232",
"+ c #D14545",
"@ c #FF5354",
"# c #65A103",
"$ c #C38100",
"% c #81D116",
"& c #FFD500",
"* c #FFEE00",
"= c #D1B07D",
"- c #BA75BA",
"; c #0A9EB0",
": c #6A8C92",
"> c #789297",
", c #449EB4",
"< c #52A3B8",
"1 c #71ADB8",
"2 c #30C4D6",
"3 c #B4BF80",
"4 c #B9AE9E",
"5 c #D3C980",
"6 c #D0DA80",
"7 c #EFE480",
"8 c #DCC6A4",
"9 c #EB94EB",
"0 c #B1CECD",
"q c #85D5F5",
"w c #B6D9E2",
"e c #A1E1FF",
"r c #D9D9DD",
"t c #E7DDCE",
"y c #C4DFE7",
"u c #D0F0FF",
"i c #DFF5FF",
"p c #E3E9E7",
"a c #EFFAFF",
"s c white",
"d c None",
/* pixels */
"dddddddddddddddddddddddddddddddd",
"dddddddddddddddddddddddddddddddd",
"dddddddddddddddddddddddddddddddd",
"dddddddddddddddddddddddddddddddd",
"dddddddddddddddddddddddddddddddd",
"dddddddddddddddddddddddddddddddd",
"dddddddddddddddddddddddddddddddd",
"dddddddddXdd.ddd..dddddddddddddd",
"ddddddddX;X.=.d.8=.ddddddddddddd",
"ddddddddX;X.==..t8=.dddddddddddd",
"ddddddddX;X.-==.9t8=.ddddddddddd",
"ddddddddXXX;;;;XX9t8..dddddddddd",
"dddddddX22222222;Xtt8=.ddddddddd",
"dddddddq,:0wwww22;Xttt8.dddddddd",
"ddddddde<>yyyy>:2;X;;;;;Xddddddd",
"dddddddi1appppu>2;X;;;;;Xddddddd",
"dddddddi15pppp532;Xt4.t8.ddddddd",
"dddddddi17pppp622;Xtttt8.ddddddd",
"dddddddX22222222;Xtt4.t=.ddddddd",
"ddddddddXXXXXXXXXttttt8.dddddddd",
"dddddddddXX;2;X88888=..ddddddddd",
"ddddddddddd ......... dddddddddd",
"ddddddddd$$#O+@@@++@sO$$dddddddd",
"dddddddd ##oorssssrs@+o# ddddddd",
"ddddddd #*orO+@@@@+O+s8.# dddddd",
"ddddddd &*.=o$$   $ort8.& dddddd",
"ddddddd$&&%.%**%%%**.8.&&$dddddd",
"dddddddd$&##***%%%***.#&$..ddddd",
"ddddddddd$ #&&&###&&&# $.8=.dddd",
"ddddddddddd  $$   $$  88==.ddddd",
"ddddddddddddd.===oddd.....dddddd",
"dddddddddddddd...ddddddddddddddd"
};
