/* XPM */
static char *result[] = {
/* columns rows colors chars-per-pixel */
"32 32 65 1 ",
"  c #A6C42E",
". c #A7C52F",
"X c #A8C62F",
"o c #A8C630",
"O c #A9C731",
"+ c #AAC831",
"@ c #AAC832",
"# c #AAC932",
"$ c #ABC932",
"% c #ABC933",
"& c #ACCA33",
"* c #ACCA34",
"= c #ACCB34",
"- c #ADCB34",
"; c #ADCC35",
": c #AECC34",
"> c #AECC35",
", c #AECD35",
"< c #AFCD36",
"1 c #AFCE36",
"2 c #AFCE37",
"3 c #B0CE37",
"4 c #B0CF37",
"5 c #B1CF37",
"6 c #B0CF38",
"7 c #B1CF38",
"8 c #B1D038",
"9 c #B2D038",
"0 c #B2D039",
"q c #B2D139",
"w c #B3D139",
"e c #B3D239",
"r c #B3D23A",
"t c #B4D23A",
"y c #B4D33A",
"u c #B4D33B",
"i c #B5D33B",
"p c #B5D43B",
"a c #B5D43C",
"s c #B6D53C",
"d c #B6D53D",
"f c #B7D63D",
"g c #B7D63E",
"h c #B8D73E",
"j c #B8D73F",
"k c #B9D73F",
"l c #B9D83F",
"z c #B9D840",
"x c #BAD940",
"c c #BAD941",
"v c #BBD941",
"b c #BBDA41",
"n c #BBDA42",
"m c #BCDA42",
"M c #BCDA43",
"N c #BCDB43",
"B c #BDDB44",
"V c #BDDC44",
"C c #BEDC45",
"Z c #BFDD46",
"A c #BFDE47",
"S c #C0DE47",
"D c #C1DF48",
"F c #C2E049",
"G c #C2E14A",
/* pixels */
"ssssssssssssssssssssssssssssssss",
"ssssssssssssssffsssssaaassssssss",
"ssssssssssssflnNjsspe4440issssss",
"ssssssssssssgNFGbssy1@o+:essssss",
"ssssssssssssfbSScssy>o .*wssssss",
"ssssssssssssshzzgsst>X .*wssssss",
"ssssssssssssssffsssu2&@$<yhzcjss",
"sssssssssssssssssssar878eazZDnss",
"ssssssssssssssssssssappppsxSFmss",
"sssssssssssssssssssssssssshMVzss",
"ssssssssssssssssssssssfhhdsfhfss",
"sssssssssssssssssssssfvVNjssssss",
"sssssssssssssssssssssfBFSzssssss",
"sssssssssssssssssssssfmACkssssss",
"sssssssssssssssssssssfhzlfssssss",
"ssssssssssssssssssssssssssssssss",
"ssssssssssssssssssssssssssssssss",
"ssssssssssssssssssssssssssssssss",
"ssssssssssssssssssssssssssssssss",
"ssssssssssssssssssssssssssssssss",
"ssssssssssssssssssssssssssssssss",
"sssspuyyppssssssssssssssssssssss",
"ssssy6<<4wpsssssssssssssssssssss",
"ssssq=OO$4usssssssssssssssssssss",
"ssss8#. O<ysssssssssssssssssssss",
"ssssq%o.+1usssssssssssssssssssss",
"ssssr,&%-8psssssssssssssssssssss",
"sssspw00qyasssssssssssssssssssss",
"ssssssssssaurupsssssssssssssssss",
"ssssssssssp9<2ysssssssssssssssss",
"ssssssssssi3&;rsssssssssssssssss",
"sssssssssspw58usssssssssssssssss"
};
