/* XPM */
static char *result[] = {
/* columns rows colors chars-per-pixel */
"64 64 20 1 ",
"  c #446300",
". c #4F422F",
"X c #016571",
"o c #767678",
"O c #8C3232",
"+ c #D14545",
"@ c #FF5354",
"# c #65A103",
"$ c #C38100",
"% c #81D116",
"& c #FFD500",
"* c #FFEE00",
"= c #D1B07D",
"- c #0A9EB0",
"; c #30C4D6",
": c #DCC6A4",
"> c #D9D9DD",
", c #E7DDCE",
"< c white",
"1 c None",
/* pixels */
"1111111111111111111111111111111111111111111111111111111111111111",
"1111111111111111111111111111111111111111111111111111111111111111",
"1111111111111111111111111111111111111111111111111111111111111111",
"1111111111111111111111111111111111111111111111111111111111111111",
"1111111111111111111111111111111111111111111111111111111111111111",
"1111111111111111111111111111111111111111111111111111111111111111",
"1111111111111111111111111111111111111111111111111111111111111111",
"1111111111111111111111111111111111111111111111111111111111111111",
"1111111111111111111111111111111111111111111111111111111111111111",
"1111111111111111111111111111111111111111111111111111111111111111",
"1111111111111111111111111111111111111111111111111111111111111111",
"1111111111111111111111111111111111111111111111111111111111111111",
"1111111111111111111111111111111111111111111111111111111111111111",
"1111111111111111111111111111111111111111111111111111111111111111",
"111111111111111111111111..11111111111111..111111XX11111111111111",
"111111111111111111111111..11111111111111..111111XX11111111111111",
"1111111111111111111111..::..1111111111..::..11XX--XX111111111111",
"1111111111111111111111..::..1111111111..::..11XX--XX111111111111",
"11111111111111111111..==,,==..111111..==,,==..XX--XX111111111111",
"11111111111111111111..==,,==..111111..==,,==..XX--XX111111111111",
"11111111111111111111..::,,,,..XXXXXX..,,,,::..XX--XX111111111111",
"11111111111111111111..::,,,,..XXXXXX..,,,,::..XX--XX111111111111",
"111111111111111111..==,,,,,,==......==,,,,,,==..--XX111111111111",
"111111111111111111..==,,,,,,==......==,,,,,,==..--XX111111111111",
"111111111111111111..::,,,,,,::::::::::,,,,,,::..--XX111111111111",
"111111111111111111..::,,,,,,::::::::::,,,,,,::..--XX111111111111",
"1111111111111111XX==::,,,,,,,,,,,,,,,,,,,,,,::==XXXX111111111111",
"1111111111111111XX==::,,,,,,,,,,,,,,,,,,,,,,::==XXXX111111111111",
"1111111111111111XX--,,,,,,,,,,,,,,,,,,,,,,,,,,--XXXX111111111111",
"1111111111111111XX--,,,,,,,,,,,,,,,,,,,,,,,,,,--XXXX111111111111",
"1111111111111111XX----,,,,,,,,,,,,,,,,,,,,,,----XXXX111111111111",
"1111111111111111XX----,,,,,,,,,,,,,,,,,,,,,,----XXXX111111111111",
"11111111111111....--------;;;;;;;;;;;;;;--------....111111111111",
"11111111111111....--------;;;;;;;;;;;;;;--------....111111111111",
"1111111111111111..::------;;;;;;;;;;;;;;------::..11111111111111",
"1111111111111111..::------;;;;;;;;;;;;;;------::..11111111111111",
"11111111111111....==::::,,,,,,,,,,,,,,,,,,::::==....111111111111",
"11111111111111....==::::,,,,,,,,,,,,,,,,,,::::==....111111111111",
"111111111111111111..==::::::::::::::::::::::==..1111111111111111",
"111111111111111111..==::::::::::::::::::::::==..1111111111111111",
"11111111111111111111....====::::::::::====....111111111111111111",
"11111111111111111111....====::::::::::====....111111111111111111",
"1111111111111111111111OO..................OO11111111111111111111",
"1111111111111111111111OO..................OO11111111111111111111",
"111111111111111111$$OO..<<++@@@@@@@@@@++<<@@OO$$1111111111111111",
"111111111111111111$$OO..<<++@@@@@@@@@@++<<@@OO$$1111111111111111",
"1111111111111111  oo..::..>><<<<<<<<<<>>@@<<<<oo  11111111111111",
"1111111111111111  oo..::..>><<<<<<<<<<>>@@<<<<oo  11111111111111",
"11111111111111  ##....,,..++@@@@@@@@@@++OO>>,,,,..  111111111111",
"11111111111111  ##....,,..++@@@@@@@@@@++OO>>,,,,..  111111111111",
"11111111111111  &&**..,,%%$$$$      $$$$%%oo,,,,..  111111111111",
"11111111111111  &&**..,,%%$$$$      $$$$%%oo,,,,..  111111111111",
"11111111111111$$&&&&%%%%%%****%%%%%%****%%%%....&&$$111111111111",
"11111111111111$$&&&&%%%%%%****%%%%%%****%%%%....&&$$111111111111",
"1111111111111111$$&&####******%%%%%%******####&&$$11111111111111",
"1111111111111111$$&&####******%%%%%%******####&&$$11111111111111",
"111111111111111111$$  ##&&&&&&######&&&&&&##  $$1111111111111111",
"111111111111111111$$  ##&&&&&&######&&&&&&##  $$1111111111111111",
"1111111111111111111111    $$$$      $$$$    11111111111111111111",
"1111111111111111111111    $$$$      $$$$    11111111111111111111",
"111111111111111111111111..::::..11111111111111111111111111111111",
"111111111111111111111111..::::..11111111111111111111111111111111",
"11111111111111111111111111....1111111111111111111111111111111111",
"11111111111111111111111111....1111111111111111111111111111111111"
};
