/* XPM */
static char *result[] = {
/* columns rows colors chars-per-pixel */
"64 64 31 1 ",
"  c #446300",
". c #4F422F",
"X c #016571",
"o c #767678",
"O c #8C3232",
"+ c #D14545",
"@ c #FF5354",
"# c #65A103",
"$ c #C38100",
"% c #81D116",
"& c #FFD500",
"* c #FFEE00",
"= c #A88D65",
"- c #D1B07D",
"; c #0A9EB0",
": c #789297",
"> c #30C4D6",
", c #D3C980",
"< c #D0DA80",
"1 c #EFE480",
"2 c #DCC6A4",
"3 c #EB94EB",
"4 c #B6D9E2",
"5 c #D9D9DD",
"6 c #E7DDCE",
"7 c #C4DFE7",
"8 c #D3D2E0",
"9 c #E3E9E7",
"0 c #EFFAFF",
"q c white",
"w c None",
/* pixels */
"wwwwwwwwwwwwwwwwwwwwwwwwwwwwwwwwwwwwwwwwwwwwwwwwwwwwwwwwwwwwwwww",
"wwwwwwwwwwwwwwwwwwwwwwwwwwwwwwwwwwwwwwwwwwwwwwwwwwwwwwwwwwwwwwww",
"wwwwwwwwwwwwwwwwwwwwwwwwwwwwwwwwwwwwwwwwwwwwwwwwwwwwwwwwwwwwwwww",
"wwwwwwwwwwwwwwwwwwwwwwwwwwwwwwwwwwwwwwwwwwwwwwwwwwwwwwwwwwwwwwww",
"wwwwwwwwwwwwwwwwwwwwwwwwwwwwwwwwwwwwwwwwwwwwwwwwwwwwwwwwwwwwwwww",
"wwwwwwwwwwwwwwwwwwwwwwwwwwwwwwwwwwwwwwwwwwwwwwwwwwwwwwwwwwwwwwww",
"wwwwwwwwwwwwwwwwwwwwwwwwwwwwwwwwwwwwwwwwwwwwwwwwwwwwwwwwwwwwwwww",
"wwwwwwwwwwwwwwwwwwwwwwwwwwwwwwwwwwwwwwwwwwwwwwwwwwwwwwwwwwwwwwww",
"wwwwwwwwwwwwwwwwwwwwwwwwwwwwwwwwwwwwwwwwwwwwwwwwwwwwwwwwwwwwwwww",
"wwwwwwwwwwwwwwwwwwwwwwwwwwwwwwwwwwwwwwwwwwwwwwwwwwwwwwwwwwwwwwww",
"wwwwwwwwwwwwwwwwwwwwwwwwwwwwwwwwwwwwwwwwwwwwwwwwwwwwwwwwwwwwwwww",
"wwwwwwwwwwwwwwwwwwwwwwwwwwwwwwwwwwwwwwwwwwwwwwwwwwwwwwwwwwwwwwww",
"wwwwwwwwwwwwwwwwwwwwwwwwwwwwwwwwwwwwwwwwwwwwwwwwwwwwwwwwwwwwwwww",
"wwwwwwwwwwwwwwwwwwwwwwwwwwwwwwwwwwwwwwwwwwwwwwwwwwwwwwwwwwwwwwww",
"wwwwwwwwwwwwwwwwXXwwwwww..wwwwwwwwwwwwww..wwwwwwwwwwwwwwwwwwwwww",
"wwwwwwwwwwwwwwwwXXwwwwww..wwwwwwwwwwwwww..wwwwwwwwwwwwwwwwwwwwww",
"wwwwwwwwwwwwwwXX;;XXww..22..wwwwwwwwww..22..wwwwwwwwwwwwwwwwwwww",
"wwwwwwwwwwwwwwXX;;XXww..22..wwwwwwwwww..22..wwwwwwwwwwwwwwwwwwww",
"wwwwwwwwwwwwwwXX>>XX..--66--..wwwwww..--66--..wwwwwwwwwwwwwwwwww",
"wwwwwwwwwwwwwwXX>>XX..--66--..wwwwww..--66--..wwwwwwwwwwwwwwwwww",
"wwwwwwwwwwwwwwXX>>XX..223366..wwwwww..663322..wwwwwwwwwwwwwwwwww",
"wwwwwwwwwwwwwwXX>>XX..223366..wwwwww..663322..wwwwwwwwwwwwwwwwww",
"wwwwwwwwwwwwwwXX>>XX--XXXX;;;;;;;;;;;;;;XXXX--..wwwwwwwwwwwwwwww",
"wwwwwwwwwwwwwwXX>>XX--XXXX;;;;;;;;;;;;;;XXXX--..wwwwwwwwwwwwwwww",
"wwwwwwwwwwwwwwXX>>XXXX;;>>>>>>>>>>>>>>>>>>;;XX..wwwwwwwwwwwwwwww",
"wwwwwwwwwwwwwwXX>>XXXX;;>>>>>>>>>>>>>>>>>>;;XX..wwwwwwwwwwwwwwww",
"wwwwwwwwwwwwwwXX>>XX;;>>444444444444444444>>;;XX..wwwwwwwwwwwwww",
"wwwwwwwwwwwwwwXX>>XX;;>>444444444444444444>>;;XX..wwwwwwwwwwwwww",
"wwwwwwwwwwwwwwXX>>XX>>44::::7777777777::::44>>XX..wwwwwwwwwwwwww",
"wwwwwwwwwwwwwwXX>>XX>>44::::7777777777::::44>>XX..wwwwwwwwwwwwww",
"wwwwwwwwwwwwwwXX>>XX>>77::00999999999900::77>>XX..wwwwwwwwwwwwww",
"wwwwwwwwwwwwwwXX>>XX>>77::00999999999900::77>>XX..wwwwwwwwwwwwww",
"wwwwwwwwwwwwwwXX>>XX>>77,,,,9999999999,,,,77>>XX....wwwwwwwwwwww",
"wwwwwwwwwwwwwwXX>>XX>>77,,,,9999999999,,,,77>>XX....wwwwwwwwwwww",
"wwwwwwwwwwwwwwXX>>XX;;>><<11999999999911<<>>;;XX..wwwwwwwwwwwwww",
"wwwwwwwwwwwwwwXX>>XX;;>><<11999999999911<<>>;;XX..wwwwwwwwwwwwww",
"wwwwwwwwwwwwwwXX;;>>XX;;>>>>>>>>>>>>>>>>>>;;XX--....wwwwwwwwwwww",
"wwwwwwwwwwwwwwXX;;>>XX;;>>>>>>>>>>>>>>>>>>;;XX--....wwwwwwwwwwww",
"wwwwwwwwwwwwwwwwXX;;>>XXXXXXXXXXXXXXXXXXXXXX--..wwwwwwwwwwwwwwww",
"wwwwwwwwwwwwwwwwXX;;>>XXXXXXXXXXXXXXXXXXXXXX--..wwwwwwwwwwwwwwww",
"wwwwwwwwwwwwwwwwwwXXXX;;;;;;XX;;>>;;XX88--....wwwwwwwwwwwwwwwwww",
"wwwwwwwwwwwwwwwwwwXXXX;;;;;;XX;;>>;;XX88--....wwwwwwwwwwwwwwwwww",
"wwwwwwwwwwwwwwwwwwwwwwOO..................OOwwwwwwwwwwwwwwwwwwww",
"wwwwwwwwwwwwwwwwwwwwwwOO..................OOwwwwwwwwwwwwwwwwwwww",
"wwwwwwwwwwwwwwwwww$$OO@@qq++@@@@@@@@@@++qq++OO$$wwwwwwwwwwwwwwww",
"wwwwwwwwwwwwwwwwww$$OO@@qq++@@@@@@@@@@++qq++OO$$wwwwwwwwwwwwwwww",
"wwwwwwwwwwwwwwww  ooqqqq@@55qqqqqqqqqq55++++55oo  wwwwwwwwwwwwww",
"wwwwwwwwwwwwwwww  ooqqqq@@55qqqqqqqqqq55++++55oo  wwwwwwwwwwwwww",
"wwwwwwwwwwwwww  ##oo666655++@@@@@@@@@@++OO55--..##  wwwwwwwwwwww",
"wwwwwwwwwwwwww  ##oo666655++@@@@@@@@@@++OO55--..##  wwwwwwwwwwww",
"wwwwwwwwwwwwww  &&..6666..$$$$      $$$$%%....**&&  wwwwwwwwwwww",
"wwwwwwwwwwwwww  &&..6666..$$$$      $$$$%%....**&&  wwwwwwwwwwww",
"wwwwwwwwwwwwww$$&&&&....%%****%%%%%%****%%%%##&&&&$$wwwwwwwwwwww",
"wwwwwwwwwwwwww$$&&&&....%%****%%%%%%****%%%%##&&&&$$wwwwwwwwwwww",
"wwwwwwwwwwwwwwww$$&&####******%%%%%%******####&&$$..wwwwwwwwwwww",
"wwwwwwwwwwwwwwww$$&&####******%%%%%%******####&&$$..wwwwwwwwwwww",
"wwwwwwwwwwwwwwwwww$$  ##&&&&&&######&&&&&&##  $$====..wwwwwwwwww",
"wwwwwwwwwwwwwwwwww$$  ##&&&&&&######&&&&&&##  $$====..wwwwwwwwww",
"wwwwwwwwwwwwwwwwwwwwww    $$$$      $$$$    ww......wwwwwwwwwwww",
"wwwwwwwwwwwwwwwwwwwwww    $$$$      $$$$    ww......wwwwwwwwwwww",
"wwwwwwwwwwwwwwwwwwwwwwwwwwwwwwwwww..2222..wwwwwwwwwwwwwwwwwwwwww",
"wwwwwwwwwwwwwwwwwwwwwwwwwwwwwwwwww..2222..wwwwwwwwwwwwwwwwwwwwww",
"wwwwwwwwwwwwwwwwwwwwwwwwwwwwwwwwwwww....wwwwwwwwwwwwwwwwwwwwwwww",
"wwwwwwwwwwwwwwwwwwwwwwwwwwwwwwwwwwww....wwwwwwwwwwwwwwwwwwwwwwww"
};
