/* XPM */
static char *result[] = {
/* columns rows colors chars-per-pixel */
"64 64 30 1 ",
"  c #446300",
". c #4F422F",
"X c #016571",
"o c #767678",
"O c #8C3232",
"+ c #D14545",
"@ c #FF5354",
"# c #65A103",
"$ c #C38100",
"% c #81D116",
"& c #FFD500",
"* c #FFEE00",
"= c #D1B07D",
"- c #0A9EB0",
"; c #789297",
": c #30C4D6",
"> c #D3C980",
", c #D0DA80",
"< c #EFE480",
"1 c #DCC6A4",
"2 c #EB94EB",
"3 c #B6D9E2",
"4 c #D9D9DD",
"5 c #E7DDCE",
"6 c #C4DFE7",
"7 c #D3D2E0",
"8 c #E3E9E7",
"9 c #EFFAFF",
"0 c white",
"q c None",
/* pixels */
"qqqqqqqqqqqqqqqqqqqqqqqqqqqqqqqqqqqqqqqqqqqqqqqqqqqqqqqqqqqqqqqq",
"qqqqqqqqqqqqqqqqqqqqqqqqqqqqqqqqqqqqqqqqqqqqqqqqqqqqqqqqqqqqqqqq",
"qqqqqqqqqqqqqqqqqqqqqqqqqqqqqqqqqqqqqqqqqqqqqqqqqqqqqqqqqqqqqqqq",
"qqqqqqqqqqqqqqqqqqqqqqqqqqqqqqqqqqqqqqqqqqqqqqqqqqqqqqqqqqqqqqqq",
"qqqqqqqqqqqqqqqqqqqqqqqqqqqqqqqqqqqqqqqqqqqqqqqqqqqqqqqqqqqqqqqq",
"qqqqqqqqqqqqqqqqqqqqqqqqqqqqqqqqqqqqqqqqqqqqqqqqqqqqqqqqqqqqqqqq",
"qqqqqqqqqqqqqqqqqqqqqqqqqqqqqqqqqqqqqqqqqqqqqqqqqqqqqqqqqqqqqqqq",
"qqqqqqqqqqqqqqqqqqqqqqqqqqqqqqqqqqqqqqqqqqqqqqqqqqqqqqqqqqqqqqqq",
"qqqqqqqqqqqqqqqqqqqqqqqqqqqqqqqqqqqqqqqqqqqqqqqqqqqqqqqqqqqqqqqq",
"qqqqqqqqqqqqqqqqqqqqqqqqqqqqqqqqqqqqqqqqqqqqqqqqqqqqqqqqqqqqqqqq",
"qqqqqqqqqqqqqqqqqqqqqqqqqqqqqqqqqqqqqqqqqqqqqqqqqqqqqqqqqqqqqqqq",
"qqqqqqqqqqqqqqqqqqqqqqqqqqqqqqqqqqqqqqqqqqqqqqqqqqqqqqqqqqqqqqqq",
"qqqqqqqqqqqqqqqqqqqqqqqqqqqqqqqqqqqqqqqqqqqqqqqqqqqqqqqqqqqqqqqq",
"qqqqqqqqqqqqqqqqqqqqqqqqqqqqqqqqqqqqqqqqqqqqqqqqqqqqqqqqqqqqqqqq",
"qqqqqqqqqqqqqqqqXXqqqqqq..qqqqqqqqqqqqqq..qqqqqqqqqqqqqqqqqqqqqq",
"qqqqqqqqqqqqqqqqXXqqqqqq..qqqqqqqqqqqqqq..qqqqqqqqqqqqqqqqqqqqqq",
"qqqqqqqqqqqqqqXX--XXqq..11..qqqqqqqqqq..11..qqqqqqqqqqqqqqqqqqqq",
"qqqqqqqqqqqqqqXX--XXqq..11..qqqqqqqqqq..11..qqqqqqqqqqqqqqqqqqqq",
"qqqqqqqqqqqqqqXX::XX..==55==..qqqqqq..==55==..qqqqqqqqqqqqqqqqqq",
"qqqqqqqqqqqqqqXX::XX..==55==..qqqqqq..==55==..qqqqqqqqqqqqqqqqqq",
"qqqqqqqqqqqqqqXX::XX..112255..qqqqqq..552211..qqqqqqqqqqqqqqqqqq",
"qqqqqqqqqqqqqqXX::XX..112255..qqqqqq..552211..qqqqqqqqqqqqqqqqqq",
"qqqqqqqqqqqqqqXX::XX==XXXX--------------XXXX==..qqqqqqqqqqqqqqqq",
"qqqqqqqqqqqqqqXX::XX==XXXX--------------XXXX==..qqqqqqqqqqqqqqqq",
"qqqqqqqqqqqqqqXX::XXXX--::::::::::::::::::--XX..qqqqqqqqqqqqqqqq",
"qqqqqqqqqqqqqqXX::XXXX--::::::::::::::::::--XX..qqqqqqqqqqqqqqqq",
"qqqqqqqqqqqqqqXX::XX--::333333333333333333::--XX..qqqqqqqqqqqqqq",
"qqqqqqqqqqqqqqXX::XX--::333333333333333333::--XX..qqqqqqqqqqqqqq",
"qqqqqqqqqqqqqqXX::XX::33;;;;6666666666;;;;33::XX..qqqqqqqqqqqqqq",
"qqqqqqqqqqqqqqXX::XX::33;;;;6666666666;;;;33::XX..qqqqqqqqqqqqqq",
"qqqqqqqqqqqqqqXX::XX::66;;99888888888899;;66::XX..qqqqqqqqqqqqqq",
"qqqqqqqqqqqqqqXX::XX::66;;99888888888899;;66::XX..qqqqqqqqqqqqqq",
"qqqqqqqqqqqqqqXX::XX::66>>>>8888888888>>>>66::XX....qqqqqqqqqqqq",
"qqqqqqqqqqqqqqXX::XX::66>>>>8888888888>>>>66::XX....qqqqqqqqqqqq",
"qqqqqqqqqqqqqqXX::XX--::,,<<8888888888<<,,::--XX..qqqqqqqqqqqqqq",
"qqqqqqqqqqqqqqXX::XX--::,,<<8888888888<<,,::--XX..qqqqqqqqqqqqqq",
"qqqqqqqqqqqqqqXX--::XX--::::::::::::::::::--XX==....qqqqqqqqqqqq",
"qqqqqqqqqqqqqqXX--::XX--::::::::::::::::::--XX==....qqqqqqqqqqqq",
"qqqqqqqqqqqqqqqqXX--::XXXXXXXXXXXXXXXXXXXXXX==..qqqqqqqqqqqqqqqq",
"qqqqqqqqqqqqqqqqXX--::XXXXXXXXXXXXXXXXXXXXXX==..qqqqqqqqqqqqqqqq",
"qqqqqqqqqqqqqqqqqqXXXX------XX--::--XX77==....qqqqqqqqqqqqqqqqqq",
"qqqqqqqqqqqqqqqqqqXXXX------XX--::--XX77==....qqqqqqqqqqqqqqqqqq",
"qqqqqqqqqqqqqqqqqqqqqqOO..................OOqqqqqqqqqqqqqqqqqqqq",
"qqqqqqqqqqqqqqqqqqqqqqOO..................OOqqqqqqqqqqqqqqqqqqqq",
"qqqqqqqqqqqqqqqqqq$$OO++00++@@@@@@@@@@++00@@OO$$qqqqqqqqqqqqqqqq",
"qqqqqqqqqqqqqqqqqq$$OO++00++@@@@@@@@@@++00@@OO$$qqqqqqqqqqqqqqqq",
"qqqqqqqqqqqqqqqq  oo44++++44000000000044@@0000oo  qqqqqqqqqqqqqq",
"qqqqqqqqqqqqqqqq  oo44++++44000000000044@@0000oo  qqqqqqqqqqqqqq",
"qqqqqqqqqqqqqq  ##..==44OO++@@@@@@@@@@++445555oo##  qqqqqqqqqqqq",
"qqqqqqqqqqqqqq  ##..==44OO++@@@@@@@@@@++445555oo##  qqqqqqqqqqqq",
"qqqqqqqqqqqqqq  &&**....%%$$$$      $$$$..5555..&&  qqqqqqqqqqqq",
"qqqqqqqqqqqqqq  &&**....%%$$$$      $$$$..5555..&&  qqqqqqqqqqqq",
"qqqqqqqqqqqqqq$$&&&&##%%%%****%%%%%%****%%....&&&&$$qqqqqqqqqqqq",
"qqqqqqqqqqqqqq$$&&&&##%%%%****%%%%%%****%%....&&&&$$qqqqqqqqqqqq",
"qqqqqqqqqqqqqqqq$$&&####******%%%%%%******####&&$$qqqqqqqqqqqqqq",
"qqqqqqqqqqqqqqqq$$&&####******%%%%%%******####&&$$qqqqqqqqqqqqqq",
"qqqqqqqqqqqqqqqqqq$$  ##&&&&&&######&&&&&&##  $$qqqqqqqqqqqqqqqq",
"qqqqqqqqqqqqqqqqqq$$  ##&&&&&&######&&&&&&##  $$qqqqqqqqqqqqqqqq",
"qqqqqqqqqqqqqqqqqqqqqq    $$$$      $$$$    qqqqqqqqqqqqqqqqqqqq",
"qqqqqqqqqqqqqqqqqqqqqq    $$$$      $$$$    qqqqqqqqqqqqqqqqqqqq",
"qqqqqqqqqqqqqqqqqqqqqqqq..1111..qqqqqqqqqqqqqqqqqqqqqqqqqqqqqqqq",
"qqqqqqqqqqqqqqqqqqqqqqqq..1111..qqqqqqqqqqqqqqqqqqqqqqqqqqqqqqqq",
"qqqqqqqqqqqqqqqqqqqqqqqqqq....qqqqqqqqqqqqqqqqqqqqqqqqqqqqqqqqqq",
"qqqqqqqqqqqqqqqqqqqqqqqqqq....qqqqqqqqqqqqqqqqqqqqqqqqqqqqqqqqqq"
};
