/* XPM */
static char *result[] = {
/* columns rows colors chars-per-pixel */
"64 64 41 1 ",
"  c #446300",
". c #4F422F",
"X c #016571",
"o c #767678",
"O c #8C3232",
"+ c #D14545",
"@ c #FF5354",
"# c #65A103",
"$ c #C38100",
"% c #81D116",
"& c #FFD500",
"* c #FFEE00",
"= c #D1B07D",
"- c #BA75BA",
"; c #0A9EB0",
": c #6A8C92",
"> c #789297",
", c #449EB4",
"< c #52A3B8",
"1 c #71ADB8",
"2 c #30C4D6",
"3 c #B4BF80",
"4 c #B9AE9E",
"5 c #D3C980",
"6 c #D0DA80",
"7 c #EFE480",
"8 c #DCC6A4",
"9 c #EB94EB",
"0 c #B1CECD",
"q c #85D5F5",
"w c #B6D9E2",
"e c #A1E1FF",
"r c #D9D9DD",
"t c #E7DDCE",
"y c #C4DFE7",
"u c #D0F0FF",
"i c #DFF5FF",
"p c #E3E9E7",
"a c #EFFAFF",
"s c white",
"d c None",
/* pixels */
"dddddddddddddddddddddddddddddddddddddddddddddddddddddddddddddddd",
"dddddddddddddddddddddddddddddddddddddddddddddddddddddddddddddddd",
"dddddddddddddddddddddddddddddddddddddddddddddddddddddddddddddddd",
"dddddddddddddddddddddddddddddddddddddddddddddddddddddddddddddddd",
"dddddddddddddddddddddddddddddddddddddddddddddddddddddddddddddddd",
"dddddddddddddddddddddddddddddddddddddddddddddddddddddddddddddddd",
"dddddddddddddddddddddddddddddddddddddddddddddddddddddddddddddddd",
"dddddddddddddddddddddddddddddddddddddddddddddddddddddddddddddddd",
"dddddddddddddddddddddddddddddddddddddddddddddddddddddddddddddddd",
"dddddddddddddddddddddddddddddddddddddddddddddddddddddddddddddddd",
"dddddddddddddddddddddddddddddddddddddddddddddddddddddddddddddddd",
"dddddddddddddddddddddddddddddddddddddddddddddddddddddddddddddddd",
"dddddddddddddddddddddddddddddddddddddddddddddddddddddddddddddddd",
"dddddddddddddddddddddddddddddddddddddddddddddddddddddddddddddddd",
"ddddddddddddddddddXXdddd..dddddd....dddddddddddddddddddddddddddd",
"ddddddddddddddddddXXdddd..dddddd....dddddddddddddddddddddddddddd",
"ddddddddddddddddXX;;XX..==..dd..88==..dddddddddddddddddddddddddd",
"ddddddddddddddddXX;;XX..==..dd..88==..dddddddddddddddddddddddddd",
"ddddddddddddddddXX;;XX..====....tt88==..dddddddddddddddddddddddd",
"ddddddddddddddddXX;;XX..====....tt88==..dddddddddddddddddddddddd",
"ddddddddddddddddXX;;XX..--====..99tt88==..dddddddddddddddddddddd",
"ddddddddddddddddXX;;XX..--====..99tt88==..dddddddddddddddddddddd",
"ddddddddddddddddXXXXXX;;;;;;;;XXXX99tt88....dddddddddddddddddddd",
"ddddddddddddddddXXXXXX;;;;;;;;XXXX99tt88....dddddddddddddddddddd",
"ddddddddddddddXX2222222222222222;;XXtttt88==..dddddddddddddddddd",
"ddddddddddddddXX2222222222222222;;XXtttt88==..dddddddddddddddddd",
"ddddddddddddddqq,,::00wwwwwwww2222;;XXtttttt88..dddddddddddddddd",
"ddddddddddddddqq,,::00wwwwwwww2222;;XXtttttt88..dddddddddddddddd",
"ddddddddddddddee<<>>yyyyyyyy>>::22;;XX;;;;;;;;;;XXdddddddddddddd",
"ddddddddddddddee<<>>yyyyyyyy>>::22;;XX;;;;;;;;;;XXdddddddddddddd",
"ddddddddddddddii11aappppppppuu>>22;;XX;;;;;;;;;;XXdddddddddddddd",
"ddddddddddddddii11aappppppppuu>>22;;XX;;;;;;;;;;XXdddddddddddddd",
"ddddddddddddddii1155pppppppp553322;;XXtt44..tt88..dddddddddddddd",
"ddddddddddddddii1155pppppppp553322;;XXtt44..tt88..dddddddddddddd",
"ddddddddddddddii1177pppppppp662222;;XXtttttttt88..dddddddddddddd",
"ddddddddddddddii1177pppppppp662222;;XXtttttttt88..dddddddddddddd",
"ddddddddddddddXX2222222222222222;;XXtttt44..tt==..dddddddddddddd",
"ddddddddddddddXX2222222222222222;;XXtttt44..tt==..dddddddddddddd",
"ddddddddddddddddXXXXXXXXXXXXXXXXXXtttttttttt88..dddddddddddddddd",
"ddddddddddddddddXXXXXXXXXXXXXXXXXXtttttttttt88..dddddddddddddddd",
"ddddddddddddddddddXXXX;;22;;XX8888888888==....dddddddddddddddddd",
"ddddddddddddddddddXXXX;;22;;XX8888888888==....dddddddddddddddddd",
"dddddddddddddddddddddd  ..................  dddddddddddddddddddd",
"dddddddddddddddddddddd  ..................  dddddddddddddddddddd",
"dddddddddddddddddd$$$$##OO++@@@@@@++++@@ssOO$$$$dddddddddddddddd",
"dddddddddddddddddd$$$$##OO++@@@@@@++++@@ssOO$$$$dddddddddddddddd",
"dddddddddddddddd  ####oooorrssssssssrrss@@++oo##  dddddddddddddd",
"dddddddddddddddd  ####oooorrssssssssrrss@@++oo##  dddddddddddddd",
"dddddddddddddd  ##**oorrOO++@@@@@@@@++OO++ss88..##  dddddddddddd",
"dddddddddddddd  ##**oorrOO++@@@@@@@@++OO++ss88..##  dddddddddddd",
"dddddddddddddd  &&**..==oo$$$$      $$oorrtt88..&&  dddddddddddd",
"dddddddddddddd  &&**..==oo$$$$      $$oorrtt88..&&  dddddddddddd",
"dddddddddddddd$$&&&&%%..%%****%%%%%%****..88..&&&&$$dddddddddddd",
"dddddddddddddd$$&&&&%%..%%****%%%%%%****..88..&&&&$$dddddddddddd",
"dddddddddddddddd$$&&####******%%%%%%******..##&&$$....dddddddddd",
"dddddddddddddddd$$&&####******%%%%%%******..##&&$$....dddddddddd",
"dddddddddddddddddd$$  ##&&&&&&######&&&&&&##  $$..88==..dddddddd",
"dddddddddddddddddd$$  ##&&&&&&######&&&&&&##  $$..88==..dddddddd",
"dddddddddddddddddddddd    $$$$      $$$$    8888====..dddddddddd",
"dddddddddddddddddddddd    $$$$      $$$$    8888====..dddddddddd",
"dddddddddddddddddddddddddd..======oodddddd..........dddddddddddd",
"dddddddddddddddddddddddddd..======oodddddd..........dddddddddddd",
"dddddddddddddddddddddddddddd......dddddddddddddddddddddddddddddd",
"dddddddddddddddddddddddddddd......dddddddddddddddddddddddddddddd"
};
