/* XPM */
static char *result[] = {
/* columns rows colors chars-per-pixel */
"64 64 3 1 ",
"  c #B6D53C",
". c #C9E750",
"X c #A6C42E",
/* pixels */
"                                                                ",
"                                                                ",
"                                                                ",
"                                                                ",
"                                                                ",
"                                                                ",
"                                                                ",
"                                                                ",
"                            ....        XXXXXXXX                ",
"                            ....        XXXXXXXX                ",
"                            ....        XXXXXXXX                ",
"                            ....        XXXXXXXX                ",
"                                        XXXXXXXX                ",
"                                        XXXXXXXX                ",
"                                        XXXXXXXX                ",
"                                        XXXXXXXX                ",
"                                                    ....        ",
"                                                    ....        ",
"                                                    ....        ",
"                                                    ....        ",
"                                                                ",
"                                                                ",
"                                                                ",
"                                                                ",
"                                            ....                ",
"                                            ....                ",
"                                            ....                ",
"                                            ....                ",
"                                                                ",
"                                                                ",
"                                                                ",
"                                                                ",
"                                                                ",
"                                                                ",
"                                                                ",
"                                                                ",
"                                                                ",
"                                                                ",
"                                                                ",
"                                                                ",
"                                                                ",
"                                                                ",
"                                                                ",
"                                                                ",
"            XXXXXXXX                                            ",
"            XXXXXXXX                                            ",
"            XXXXXXXX                                            ",
"            XXXXXXXX                                            ",
"            XXXXXXXX                                            ",
"            XXXXXXXX                                            ",
"            XXXXXXXX                                            ",
"            XXXXXXXX                                            ",
"                                                                ",
"                                                                ",
"                                                                ",
"                                                                ",
"                        XXXX                                    ",
"                        XXXX                                    ",
"                        XXXX                                    ",
"                        XXXX                                    ",
"                                                                ",
"                                                                ",
"                                                                ",
"                                                                "
};
