/* XPM */
static char *result[] = {
/* columns rows colors chars-per-pixel */
"32 32 41 1 ",
"  c #446300",
". c #4F422F",
"X c #016571",
"o c #767678",
"O c #8C3232",
"+ c #D14545",
"@ c #FF5354",
"# c #65A103",
"$ c #C38100",
"% c #81D116",
"& c #FFD500",
"* c #FFEE00",
"= c #D1B07D",
"- c #BA75BA",
"; c #0A9EB0",
": c #6A8C92",
"> c #789297",
", c #449EB4",
"< c #52A3B8",
"1 c #71ADB8",
"2 c #30C4D6",
"3 c #B4BF80",
"4 c #B9AE9E",
"5 c #D3C980",
"6 c #D0DA80",
"7 c #EFE480",
"8 c #DCC6A4",
"9 c #EB94EB",
"0 c #B1CECD",
"q c #85D5F5",
"w c #B6D9E2",
"e c #A1E1FF",
"r c #D9D9DD",
"t c #E7DDCE",
"y c #C4DFE7",
"u c #D0F0FF",
"i c #DFF5FF",
"p c #E3E9E7",
"a c #EFFAFF",
"s c white",
"d c None",
/* pixels */
"dddddddddddddddddddddddddddddddd",
"dddddddddddddddddddddddddddddddd",
"dddddddddddddddddddddddddddddddd",
"dddddddddddddddddddddddddddddddd",
"dddddddddddddddddddddddddddddddd",
"dddddddddddddddddddddddddddddddd",
"dddddddddddddddddddddddddddddddd",
"ddddddddddddddX..ddd.ddddddddddd",
"dddddddddddddX;X8.d.=.dddddddddd",
"dddddddddddddX2Xt..==.dddddddddd",
"dddddddddddd.X2X9.==-.dddddddddd",
"ddddddddddd..X2XXX;;;;XXXddddddd",
"dddddddddd.=8X2X;22222222Xdddddd",
"ddddddddd.8ttX2X22wwww0:,qdddddd",
"ddddddddX;;;;X2X2:>yyyy><edddddd",
"ddddddddX;;;;X2X2>uppppa1idddddd",
"dddddddd.8t.4X2X235pppp51idddddd",
"dddddddd.8tttX2X226pppp71idddddd",
"dddddddd.=t.4X;2X22222222Xdddddd",
"ddddddddd.8tttX;2XXXXXXXXddddddd",
"dddddddddd..=88X;;X;2;Xddddddddd",
"ddddddddddd ......... dddddddddd",
"ddddddddd$$#O@@+@@@+O#$$dddddddd",
"dddddddd ## orsOsssro ## ddddddd",
"ddddddd #** O+@so@@+O **# dddddd",
"ddddddd &**%%Orst.$$%%**& dddddd",
"ddddddd$&&%%%*o88.**%%%&&$dddddd",
"dddddddd$&##***..%***##&$ddddddd",
"ddddddddd$ #&&&###&&&# $dddddddd",
"ddddddddddd  $$   $$  dddddddddd",
"dddddddddddd.==.ddd..ddddddddddd",
"ddddddddddddd..ddddddddddddddddd"
};
