/* XPM */
static char *result[] = {
/* columns rows colors chars-per-pixel */
"64 64 41 1 ",
"  c #446300",
". c #4F422F",
"X c #016571",
"o c #767678",
"O c #8C3232",
"+ c #D14545",
"@ c #FF5354",
"# c #65A103",
"$ c #C38100",
"% c #81D116",
"& c #FFD500",
"* c #FFEE00",
"= c #D1B07D",
"- c #BA75BA",
"; c #0A9EB0",
": c #6A8C92",
"> c #789297",
", c #449EB4",
"< c #52A3B8",
"1 c #71ADB8",
"2 c #30C4D6",
"3 c #B4BF80",
"4 c #B9AE9E",
"5 c #D3C980",
"6 c #D0DA80",
"7 c #EFE480",
"8 c #DCC6A4",
"9 c #EB94EB",
"0 c #B1CECD",
"q c #85D5F5",
"w c #B6D9E2",
"e c #A1E1FF",
"r c #D9D9DD",
"t c #E7DDCE",
"y c #C4DFE7",
"u c #D0F0FF",
"i c #DFF5FF",
"p c #E3E9E7",
"a c #EFFAFF",
"s c white",
"d c None",
/* pixels */
"dddddddddddddddddddddddddddddddddddddddddddddddddddddddddddddddd",
"dddddddddddddddddddddddddddddddddddddddddddddddddddddddddddddddd",
"dddddddddddddddddddddddddddddddddddddddddddddddddddddddddddddddd",
"dddddddddddddddddddddddddddddddddddddddddddddddddddddddddddddddd",
"dddddddddddddddddddddddddddddddddddddddddddddddddddddddddddddddd",
"dddddddddddddddddddddddddddddddddddddddddddddddddddddddddddddddd",
"dddddddddddddddddddddddddddddddddddddddddddddddddddddddddddddddd",
"dddddddddddddddddddddddddddddddddddddddddddddddddddddddddddddddd",
"dddddddddddddddddddddddddddddddddddddddddddddddddddddddddddddddd",
"dddddddddddddddddddddddddddddddddddddddddddddddddddddddddddddddd",
"dddddddddddddddddddddddddddddddddddddddddddddddddddddddddddddddd",
"dddddddddddddddddddddddddddddddddddddddddddddddddddddddddddddddd",
"dddddddddddddddddddddddddddddddddddddddddddddddddddddddddddddddd",
"dddddddddddddddddddddddddddddddddddddddddddddddddddddddddddddddd",
"ddddddddddddddddddddddddddddXX....dddddd..dddddddddddddddddddddd",
"ddddddddddddddddddddddddddddXX....dddddd..dddddddddddddddddddddd",
"ddddddddddddddddddddddddddXX;;XX88..dd..==..dddddddddddddddddddd",
"ddddddddddddddddddddddddddXX;;XX88..dd..==..dddddddddddddddddddd",
"ddddddddddddddddddddddddddXX22XXtt....====..dddddddddddddddddddd",
"ddddddddddddddddddddddddddXX22XXtt....====..dddddddddddddddddddd",
"dddddddddddddddddddddddd..XX22XX99..====--..dddddddddddddddddddd",
"dddddddddddddddddddddddd..XX22XX99..====--..dddddddddddddddddddd",
"dddddddddddddddddddddd....XX22XXXXXX;;;;;;;;XXXXXXdddddddddddddd",
"dddddddddddddddddddddd....XX22XXXXXX;;;;;;;;XXXXXXdddddddddddddd",
"dddddddddddddddddddd..==88XX22XX;;2222222222222222XXdddddddddddd",
"dddddddddddddddddddd..==88XX22XX;;2222222222222222XXdddddddddddd",
"dddddddddddddddddd..88ttttXX22XX2222wwwwwwww00::,,qqdddddddddddd",
"dddddddddddddddddd..88ttttXX22XX2222wwwwwwww00::,,qqdddddddddddd",
"ddddddddddddddddXX;;;;;;;;XX22XX22::>>yyyyyyyy>><<eedddddddddddd",
"ddddddddddddddddXX;;;;;;;;XX22XX22::>>yyyyyyyy>><<eedddddddddddd",
"ddddddddddddddddXX;;;;;;;;XX22XX22>>uuppppppppaa11iidddddddddddd",
"ddddddddddddddddXX;;;;;;;;XX22XX22>>uuppppppppaa11iidddddddddddd",
"dddddddddddddddd..88tt..44XX22XX223355pppppppp5511iidddddddddddd",
"dddddddddddddddd..88tt..44XX22XX223355pppppppp5511iidddddddddddd",
"dddddddddddddddd..88ttttttXX22XX222266pppppppp7711iidddddddddddd",
"dddddddddddddddd..88ttttttXX22XX222266pppppppp7711iidddddddddddd",
"dddddddddddddddd..==tt..44XX;;22XX2222222222222222XXdddddddddddd",
"dddddddddddddddd..==tt..44XX;;22XX2222222222222222XXdddddddddddd",
"dddddddddddddddddd..88ttttttXX;;22XXXXXXXXXXXXXXXXdddddddddddddd",
"dddddddddddddddddd..88ttttttXX;;22XXXXXXXXXXXXXXXXdddddddddddddd",
"dddddddddddddddddddd....==8888XX;;;;XX;;22;;XXdddddddddddddddddd",
"dddddddddddddddddddd....==8888XX;;;;XX;;22;;XXdddddddddddddddddd",
"dddddddddddddddddddddd  ..................  dddddddddddddddddddd",
"dddddddddddddddddddddd  ..................  dddddddddddddddddddd",
"dddddddddddddddddd$$$$OOss@@++++@@@@@@++OO##$$$$dddddddddddddddd",
"dddddddddddddddddd$$$$OOss@@++++@@@@@@++OO##$$$$dddddddddddddddd",
"dddddddddddddddd  ##oo++@@ssrrssssssssrroooo####  dddddddddddddd",
"dddddddddddddddd  ##oo++@@ssrrssssssssrroooo####  dddddddddddddd",
"dddddddddddddd  ##..88ss++OO++@@@@@@@@++OOrroo**##  dddddddddddd",
"dddddddddddddd  ##..88ss++OO++@@@@@@@@++OOrroo**##  dddddddddddd",
"dddddddddddddd  &&..88ttrroo$$      $$$$oo==..**&&  dddddddddddd",
"dddddddddddddd  &&..88ttrroo$$      $$$$oo==..**&&  dddddddddddd",
"dddddddddddddd$$&&&&..88..****%%%%%%****%%..%%&&&&$$dddddddddddd",
"dddddddddddddd$$&&&&..88..****%%%%%%****%%..%%&&&&$$dddddddddddd",
"dddddddddddd....$$&&##..******%%%%%%******####&&$$dddddddddddddd",
"dddddddddddd....$$&&##..******%%%%%%******####&&$$dddddddddddddd",
"dddddddddd..==88..$$  ##&&&&&&######&&&&&&##  $$dddddddddddddddd",
"dddddddddd..==88..$$  ##&&&&&&######&&&&&&##  $$dddddddddddddddd",
"dddddddddddd..====8888    $$$$      $$$$    dddddddddddddddddddd",
"dddddddddddd..====8888    $$$$      $$$$    dddddddddddddddddddd",
"dddddddddddddd..........ddddddoo======..dddddddddddddddddddddddd",
"dddddddddddddd..........ddddddoo======..dddddddddddddddddddddddd",
"dddddddddddddddddddddddddddddddd......dddddddddddddddddddddddddd",
"dddddddddddddddddddddddddddddddd......dddddddddddddddddddddddddd"
};
