/* XPM */
static char *result[] = {
/* columns rows colors chars-per-pixel */
"64 64 5 1 ",
"  c #141B1B",
". c #965340",
"X c #BD7959",
"o c #D2B37D",
"O c None",
/* pixels */
"OOOOOOOOOOOOOOOOOOOOOOOOOOOOOOOOOOOOOOOOOOOOOOOOOOOOOOOOOOOOOOOO",
"OOOOOOOOOOOOOOOOOOOOOOOOOOOOOOOOOOOOOOOOOOOOOOOOOOOOOOOOOOOOOOOO",
"OOOOOOOOOOOOOOOOOOOOOOOOOOOOOOOOOOOOOOOOOOOOOOOOOOOOOOOOOOOOOOOO",
"OOOOOOOOOOOOOOOOOOOOOOOOOOOOOOOOOOOOOOOOOOOOOOOOOOOOOOOOOOOOOOOO",
"OOOOOOOOOOOOOOOOOOOOOOOOOOOOOOOOOOOOOOOOOOOOOOOOOOOOOOOOOOOOOOOO",
"OOOOOOOOOOOOOOOOOOOOOOOOOOOOOOOOOOOOOOOOOOOOOOOOOOOOOOOOOOOOOOOO",
"OOOOOOOOOOOOOOOOOOOOOOOOOOOOOOOOOOOOOOOOOOOOOOOOOOOOOOOOOOOOOOOO",
"OOOOOOOOOOOOOOOOOOOOOOOOOOOOOOOOOOOOOOOOOOOOOOOOOOOOOOOOOOOOOOOO",
"OOOOOOOOOOOO                                        OOOOOOOOOOOO",
"OOOOOOOOOOOO                                        OOOOOOOOOOOO",
"OOOOOOOOOOOO                                        OOOOOOOOOOOO",
"OOOOOOOOOOOO                                        OOOOOOOOOOOO",
"OOOOOOOO    ooooooooooooXXXXooooooooooooXXXXoooooooo    OOOOOOOO",
"OOOOOOOO    ooooooooooooXXXXooooooooooooXXXXoooooooo    OOOOOOOO",
"OOOOOOOO    ooooooooooooXXXXooooooooooooXXXXoooooooo    OOOOOOOO",
"OOOOOOOO    ooooooooooooXXXXooooooooooooXXXXoooooooo    OOOOOOOO",
"OOOO    XXXXooooXXXXXXXX....XXXXXXXXXXXX....XXXXooooXXXX    OOOO",
"OOOO    XXXXooooXXXXXXXX....XXXXXXXXXXXX....XXXXooooXXXX    OOOO",
"OOOO    XXXXooooXXXXXXXX....XXXXXXXXXXXX....XXXXooooXXXX    OOOO",
"OOOO    XXXXooooXXXXXXXX....XXXXXXXXXXXX....XXXXooooXXXX    OOOO",
"    ooooooooXXXX........    ............    ....XXXXoooooooo    ",
"    ooooooooXXXX........    ............    ....XXXXoooooooo    ",
"    ooooooooXXXX........    ............    ....XXXXoooooooo    ",
"    ooooooooXXXX........    ............    ....XXXXoooooooo    ",
"    oooooooo....                                XXXXoooooooo    ",
"    oooooooo....                                XXXXoooooooo    ",
"    oooooooo....                                XXXXoooooooo    ",
"    oooooooo....                                XXXXoooooooo    ",
"    oooooooo....                                XXXXoooooooo    ",
"    oooooooo....                                XXXXoooooooo    ",
"    oooooooo....                                XXXXoooooooo    ",
"    oooooooo....                                XXXXoooooooo    ",
"    XXXXXXXX....                                XXXXXXXXXXXX    ",
"    XXXXXXXX....                                XXXXXXXXXXXX    ",
"    XXXXXXXX....                                XXXXXXXXXXXX    ",
"    XXXXXXXX....                                XXXXXXXXXXXX    ",
"    oooooooo....                                XXXXoooooooo    ",
"    oooooooo....                                XXXXoooooooo    ",
"    oooooooo....                                XXXXoooooooo    ",
"    oooooooo....                                XXXXoooooooo    ",
"    oooooooooooo....                        ....oooooooooooo    ",
"    oooooooooooo....                        ....oooooooooooo    ",
"    oooooooooooo....                        ....oooooooooooo    ",
"    oooooooooooo....                        ....oooooooooooo    ",
"    XXXXooooooooXXXXooooooooooooXXXXooooooooooooXXXXooooXXXX    ",
"    XXXXooooooooXXXXooooooooooooXXXXooooooooooooXXXXooooXXXX    ",
"    XXXXooooooooXXXXooooooooooooXXXXooooooooooooXXXXooooXXXX    ",
"    XXXXooooooooXXXXooooooooooooXXXXooooooooooooXXXXooooXXXX    ",
"    ....XXXXooooXXXXooooooooooooXXXXooooooooooooooooXXXX....    ",
"    ....XXXXooooXXXXooooooooooooXXXXooooooooooooooooXXXX....    ",
"    ....XXXXooooXXXXooooooooooooXXXXooooooooooooooooXXXX....    ",
"    ....XXXXooooXXXXooooooooooooXXXXooooooooooooooooXXXX....    ",
"    XXXX....XXXX....XXXXXXXXXXXX....XXXXXXXXXXXXXXXX....XXXX    ",
"    XXXX....XXXX....XXXXXXXXXXXX....XXXXXXXXXXXXXXXX....XXXX    ",
"    XXXX....XXXX....XXXXXXXXXXXX....XXXXXXXXXXXXXXXX....XXXX    ",
"    XXXX....XXXX....XXXXXXXXXXXX....XXXXXXXXXXXXXXXX....XXXX    ",
"OOOO    XXXX........................................XXXX    OOOO",
"OOOO    XXXX........................................XXXX    OOOO",
"OOOO    XXXX........................................XXXX    OOOO",
"OOOO    XXXX........................................XXXX    OOOO",
"OOOOOOOO    XXXXXXXXXXXX....XXXXXXXXXXXX....XXXXXXXX    OOOOOOOO",
"OOOOOOOO    XXXXXXXXXXXX....XXXXXXXXXXXX....XXXXXXXX    OOOOOOOO",
"OOOOOOOO    XXXXXXXXXXXX....XXXXXXXXXXXX....XXXXXXXX    OOOOOOOO",
"OOOOOOOO    XXXXXXXXXXXX....XXXXXXXXXXXX....XXXXXXXX    OOOOOOOO"
};
