/* XPM */
static char *result[] = {
/* columns rows colors chars-per-pixel */
"64 64 6 1 ",
"  c #141B1B",
". c #5F7160",
"X c #8F3E56",
"o c #E0394C",
"O c #F2EAF1",
"+ c None",
/* pixels */
"++++++++++++++++++++++++++++++++++++++++++++++++++++++++++++++++",
"++++++++++++++++++++++++++++++++++++++++++++++++++++++++++++++++",
"++++++++++++++++++++++++++++++++++++++++++++++++++++++++++++++++",
"++++++++++++++++++++++++++++++++++++++++++++++++++++++++++++++++",
"++++++++++++++++++++++++++++++++++++++++++++++++++++++++++++++++",
"++++++++++++++++++++++++++++++++++++++++++++++++++++++++++++++++",
"++++++++++++++++++++++++++++++++++++++++++++++++++++++++++++++++",
"++++++++++++++++++++++++++++++++++++++++++++++++++++++++++++++++",
"++++++++++++++++++++++++++++++++++++++++++++++++++++++++++++++++",
"++++++++++++++++++++++++++++++++++++++++++++++++++++++++++++++++",
"++++++++++++++++++++++++++++++++++++++++++++++++++++++++++++++++",
"++++++++++++++++++++++++++++++++++++++++++++++++++++++++++++++++",
"++++++++++++++++++++++++++++++++++++++++++++++++++++++++++++++++",
"++++++++++++++++++++                        ++++++++++++++++++++",
"++++++++++++++++++++                        ++++++++++++++++++++",
"++++++++++++++++++++                        ++++++++++++++++++++",
"++++++++++++++++++++                        ++++++++++++++++++++",
"++++++++++++        OOOOOOOOooooooooOOOOOOOO        ++++++++++++",
"++++++++++++        OOOOOOOOooooooooOOOOOOOO        ++++++++++++",
"++++++++++++        OOOOOOOOooooooooOOOOOOOO        ++++++++++++",
"++++++++++++        OOOOOOOOooooooooOOOOOOOO        ++++++++++++",
"++++++++    ooooOOOOOOOOooooooooooooooooOOOOOOOOoooo    ++++++++",
"++++++++    ooooOOOOOOOOooooooooooooooooOOOOOOOOoooo    ++++++++",
"++++++++    ooooOOOOOOOOooooooooooooooooOOOOOOOOoooo    ++++++++",
"++++++++    ooooOOOOOOOOooooooooooooooooOOOOOOOOoooo    ++++++++",
"++++++++    ooooOOOOOOOOooooooooooooooooOOOOOOOOoooo    ++++++++",
"++++    OOOOooooooooooooooooooooooooooooooooooooooooOOOO    ++++",
"++++    OOOOooooooooooooooooooooooooooooooooooooooooOOOO    ++++",
"++++    OOOOooooooooooooooooooooooooooooooooooooooooOOOO    ++++",
"++++    OOOOooooooooooooooooooooooooooooooooooooooooOOOO    ++++",
"    ooooooooooooOOOOOOOOooooooooooooooooOOOOOOOOoooooooooooo    ",
"    ooooooooooooOOOOOOOOooooooooooooooooOOOOOOOOoooooooooooo    ",
"    ooooooooooooOOOOOOOOooooooooooooooooOOOOOOOOoooooooooooo    ",
"    ooooooooooooOOOOOOOOooooooooooooooooOOOOOOOOoooooooooooo    ",
"    XXXXooooOOOOOOOOOOOOOOOOooooooooOOOOOOOOOOOOOOOOooooXXXX    ",
"    XXXXooooOOOOOOOOOOOOOOOOooooooooOOOOOOOOOOOOOOOOooooXXXX    ",
"    XXXXooooOOOOOOOOOOOOOOOOooooooooOOOOOOOOOOOOOOOOooooXXXX    ",
"    XXXXooooOOOOOOOOOOOOOOOOooooooooOOOOOOOOOOOOOOOOooooXXXX    ",
"++++    XXXXXXXXOOOOOOOOooooooooooooooooOOOOOOOOXXXXXXXX    ++++",
"++++    XXXXXXXXOOOOOOOOooooooooooooooooOOOOOOOOXXXXXXXX    ++++",
"++++    XXXXXXXXOOOOOOOOooooooooooooooooOOOOOOOOXXXXXXXX    ++++",
"++++    XXXXXXXXOOOOOOOOooooooooooooooooOOOOOOOOXXXXXXXX    ++++",
"++++    XXXXXXXXOOOOOOOOooooooooooooooooOOOOOOOOXXXXXXXX    ++++",
"++++++++        XXXXXXXXXXXXXXXXXXXXXXXXXXXXXXXX        ++++++++",
"++++++++        XXXXXXXXXXXXXXXXXXXXXXXXXXXXXXXX        ++++++++",
"++++++++        XXXXXXXXXXXXXXXXXXXXXXXXXXXXXXXX        ++++++++",
"++++++++        XXXXXXXXXXXXXXXXXXXXXXXXXXXXXXXX        ++++++++",
"++++++++++++++++                                ++++++++++++++++",
"++++++++++++++++                                ++++++++++++++++",
"++++++++++++++++                                ++++++++++++++++",
"++++++++++++++++                                ++++++++++++++++",
"++++++++++++++++    ........................    ++++++++++++++++",
"++++++++++++++++    ........................    ++++++++++++++++",
"++++++++++++++++    ........................    ++++++++++++++++",
"++++++++++++++++    ........................    ++++++++++++++++",
"++++++++++++++++++++    ................    ++++++++++++++++++++",
"++++++++++++++++++++    ................    ++++++++++++++++++++",
"++++++++++++++++++++    ................    ++++++++++++++++++++",
"++++++++++++++++++++    ................    ++++++++++++++++++++",
"++++++++++++++++++++    ................    ++++++++++++++++++++",
"++++++++++++++++++++++++                ++++++++++++++++++++++++",
"++++++++++++++++++++++++                ++++++++++++++++++++++++",
"++++++++++++++++++++++++                ++++++++++++++++++++++++",
"++++++++++++++++++++++++                ++++++++++++++++++++++++"
};
